<?xml version="1.0" encoding="UTF-8" standalone="no"?>
<svg
   xmlns:dc="http://purl.org/dc/elements/1.1/"
   xmlns:cc="http://creativecommons.org/ns#"
   xmlns:rdf="http://www.w3.org/1999/02/22-rdf-syntax-ns#"
   xmlns:svg="http://www.w3.org/2000/svg"
   xmlns="http://www.w3.org/2000/svg"
   xmlns:sodipodi="http://sodipodi.sourceforge.net/DTD/sodipodi-0.dtd"
   xmlns:inkscape="http://www.inkscape.org/namespaces/inkscape"
   sodipodi:docname="icon.svg"
   inkscape:version="1.0 (4035a4fb49, 2020-05-01)"
   id="svg8"
   version="1.1"
   viewBox="0 0 135.46667 135.46667"
   height="512"
   width="512"
   inkscape:export-filename="/home/masanori/Projects/arisu.cool/asobi-stage-playground/src/assets/icon.png"
   inkscape:export-xdpi="96"
   inkscape:export-ydpi="96">
  <defs
     id="defs2">
    <clipPath
       clipPathUnits="userSpaceOnUse"
       id="clipPath1705">
      <text
         xml:space="preserve"
         style="font-style:normal;font-variant:normal;font-weight:normal;font-stretch:normal;font-size:67.8783px;line-height:130%;font-family:'Riverside Sans';-inkscape-font-specification:'Riverside Sans, Normal';font-variant-ligatures:normal;font-variant-caps:normal;font-variant-numeric:normal;font-variant-east-asian:normal;letter-spacing:0px;word-spacing:0px;writing-mode:lr-tb;fill:#ffffff;fill-opacity:1;stroke:#000000;stroke-width:0.471379px;stroke-linecap:butt;stroke-linejoin:miter;stroke-opacity:1"
         x="55.370823"
         y="143.75914"
         id="text1709"
         transform="matrix(0.81435271,-0.09637257,-0.63285627,1.302863,0,0)"><tspan
           sodipodi:role="line"
           id="tspan1707"
           x="55.370823"
           y="143.75914"
           style="font-style:normal;font-variant:normal;font-weight:normal;font-stretch:normal;font-size:67.8783px;font-family:'Squada One';-inkscape-font-specification:'Squada One';font-variant-ligatures:normal;font-variant-caps:normal;font-variant-numeric:normal;font-variant-east-asian:normal;fill:#ffffff;fill-opacity:1;stroke:none;stroke-width:0.471379px">S</tspan></text>
    </clipPath>
    <clipPath
       clipPathUnits="userSpaceOnUse"
       id="clipPath1748">
      <text
         xml:space="preserve"
         style="font-style:normal;font-variant:normal;font-weight:normal;font-stretch:normal;font-size:67.8783px;line-height:130%;font-family:'Riverside Sans';-inkscape-font-specification:'Riverside Sans, Normal';font-variant-ligatures:normal;font-variant-caps:normal;font-variant-numeric:normal;font-variant-east-asian:normal;letter-spacing:0px;word-spacing:0px;writing-mode:lr-tb;fill:#efb817;fill-opacity:1;stroke:#000000;stroke-width:0.471379px;stroke-linecap:butt;stroke-linejoin:miter;stroke-opacity:1"
         x="54.49242"
         y="144.63972"
         id="text1752"
         transform="matrix(1.2048417,-0.37277932,0,0.82998456,0,0)"><tspan
           sodipodi:role="line"
           id="tspan1750"
           x="54.49242"
           y="144.63972"
           style="font-style:normal;font-variant:normal;font-weight:normal;font-stretch:normal;font-size:67.8783px;font-family:'Squada One';-inkscape-font-specification:'Squada One';font-variant-ligatures:normal;font-variant-caps:normal;font-variant-numeric:normal;font-variant-east-asian:normal;fill:#efb817;fill-opacity:1;stroke:none;stroke-width:0.471379px">S</tspan></text>
    </clipPath>
  </defs>
  <sodipodi:namedview
     units="px"
     showgrid="false"
     inkscape:document-rotation="0"
     inkscape:current-layer="g1974"
     inkscape:document-units="mm"
     inkscape:cy="137.72242"
     inkscape:cx="322.94062"
     inkscape:zoom="1"
     inkscape:pageshadow="2"
     inkscape:pageopacity="0.0"
     borderopacity="1.0"
     bordercolor="#666666"
     pagecolor="#ffffff"
     id="base" />
  <metadata
     id="metadata5">
    <rdf:RDF>
      <cc:Work
         rdf:about="">
        <dc:format>image/svg+xml</dc:format>
        <dc:type
           rdf:resource="http://purl.org/dc/dcmitype/StillImage" />
        <dc:title></dc:title>
      </cc:Work>
    </rdf:RDF>
  </metadata>
  <g
     id="layer1"
     inkscape:groupmode="layer"
     inkscape:label="シャドウ">
    <g
       transform="matrix(0.97473478,0,0,1.0385068,89.917699,-72.309334)"
       id="g1114">
      <g
         id="g1949"
         transform="matrix(1,0.02285253,0,1,0,0.25486602)" />
    </g>
  </g>
  <g
     inkscape:groupmode="layer"
     id="layer2"
     inkscape:label="AS">
    <g
       id="g1974"
       transform="translate(2.7989972,5.5887802)">
      <g
         style="font-style:normal;font-variant:normal;font-weight:normal;font-stretch:normal;font-size:137.727px;line-height:130%;font-family:'Riverside Sans';-inkscape-font-specification:'Riverside Sans, Normal';font-variant-ligatures:normal;font-variant-caps:normal;font-variant-numeric:normal;font-variant-east-asian:normal;letter-spacing:0px;word-spacing:0px;writing-mode:lr-tb;fill:#909090;fill-opacity:1;stroke:none;stroke-width:0.956438px;stroke-linecap:butt;stroke-linejoin:miter;stroke-opacity:1"
         id="text869-3-5-5-6"
         transform="matrix(1.8277633,-0.42538743,0.88782279,0.53122369,91.364814,-93.341779)"
         aria-label="P">
        <path
           id="path1951"
           style="font-style:normal;font-variant:normal;font-weight:normal;font-stretch:normal;font-size:137.727px;font-family:'Squada One';-inkscape-font-specification:'Squada One';font-variant-ligatures:normal;font-variant-caps:normal;font-variant-numeric:normal;font-variant-east-asian:normal;fill:#909090;fill-opacity:1;stroke:none;stroke-width:0.956438px;stroke-opacity:1"
           d="m -106.42926,183.84247 q 17.078152,0 17.078152,18.17997 v 17.76678 q 0,18.17996 -17.078152,18.17996 h -15.56315 v 34.98266 h -19.28178 v -89.10937 z m -2.20363,38.15038 V 199.8188 q 0,-1.10181 -0.82636,-1.92817 -0.68864,-0.82637 -1.79045,-0.82637 h -10.74271 v 27.68313 h 10.74271 q 1.10181,0 1.79045,-0.82636 0.82636,-0.82636 0.82636,-1.92818 z" />
      </g>
      <path
         d="M 21.003212,62.245693 77.237116,48.898958 c 4.077776,-0.967831 9.886031,-0.219959 13.023004,1.676855 l 25.41019,15.364619 c 3.13697,1.896814 2.37956,4.203001 -1.69821,5.170835 L 57.738198,84.457998 c -4.077787,0.967836 -9.88603,0.21996 -13.023004,-1.676853 L 19.304998,67.416526 c -3.136974,-1.896813 -2.379574,-4.202999 1.698214,-5.170833 z"
         style="color:#000000;overflow:visible;fill:#ffffff;fill-opacity:1;stroke:none;stroke-width:2.36959;stroke-miterlimit:4;stroke-dasharray:none;stroke-opacity:1;paint-order:stroke fill markers;stop-color:#000000"
         id="rect1047-9-5" />
      <path
         sodipodi:nodetypes="cccssssc"
         d="M 31.604719,19.507726 C 43.673657,18.356112 54.078554,6.5551876 65.022195,6.3007976 76.739042,10.312187 88.526442,15.171392 100.47694,19.123261 c 0,0 3.53509,2.008239 1.06305,2.578103 l -34.090281,7.858608 c -2.472033,0.569862 -6.926399,0.337572 -9.987371,-0.520836 L 32.667764,22.08583 c -3.060972,-0.858409 -3.446318,-1.708793 -1.063045,-2.578104 z"
         style="color:#000000;overflow:visible;fill:#deab69;fill-opacity:1;stroke:none;stroke-width:1.41971;stroke-miterlimit:4;stroke-dasharray:none;stroke-opacity:1;paint-order:stroke fill markers;stop-color:#000000"
         id="rect1047-9-5-5" />
      <g
         style="font-style:normal;font-variant:normal;font-weight:normal;font-stretch:normal;font-size:67.8783px;line-height:130%;font-family:'Riverside Sans';-inkscape-font-specification:'Riverside Sans, Normal';font-variant-ligatures:normal;font-variant-caps:normal;font-variant-numeric:normal;font-variant-east-asian:normal;letter-spacing:0px;word-spacing:0px;writing-mode:lr-tb;fill:#909090;fill-opacity:1;stroke:#000000;stroke-width:0.471376px;stroke-linecap:butt;stroke-linejoin:miter;stroke-opacity:1"
         id="text869"
         transform="matrix(1.3906788,0.43027753,0,0.958003,-16.861158,-10.184818)"
         aria-label="A">
        <path
           id="path1956"
           style="font-style:normal;font-variant:normal;font-weight:normal;font-stretch:normal;font-size:67.8783px;font-family:'Squada One';-inkscape-font-specification:'Squada One';font-variant-ligatures:normal;font-variant-caps:normal;font-variant-numeric:normal;font-variant-east-asian:normal;fill:#909090;fill-opacity:1;stroke:none;stroke-width:0.471376px"
           d="m 49.699323,19.86995 q 8.416909,0 8.416909,8.959936 v 35.63611 H 48.61327 V 49.736404 h -6.855709 v 14.729592 h -9.502962 v -35.63611 q 0,-8.959936 8.416909,-8.959936 z M 41.757561,42.405547 H 48.61327 V 27.675955 q 0,-0.543026 -0.40727,-0.950296 -0.339392,-0.40727 -0.882418,-0.40727 h -4.276333 q -0.543027,0 -0.950296,0.40727 -0.339392,0.40727 -0.339392,0.950296 z" />
      </g>
      <g
         style="font-style:normal;font-variant:normal;font-weight:normal;font-stretch:normal;font-size:67.8783px;line-height:130%;font-family:'Riverside Sans';-inkscape-font-specification:'Riverside Sans, Normal';font-variant-ligatures:normal;font-variant-caps:normal;font-variant-numeric:normal;font-variant-east-asian:normal;letter-spacing:0px;word-spacing:0px;writing-mode:lr-tb;fill:#909090;fill-opacity:1;stroke:#000000;stroke-width:0.471379px;stroke-linecap:butt;stroke-linejoin:miter;stroke-opacity:1"
         id="text869-6"
         transform="matrix(1.3906788,-0.43027753,0,0.958003,-16.861158,-10.184818)"
         aria-label="S">
        <path
           id="path1959"
           style="font-style:normal;font-variant:normal;font-weight:normal;font-stretch:normal;font-size:67.8783px;font-family:'Squada One';-inkscape-font-specification:'Squada One';font-variant-ligatures:normal;font-variant-caps:normal;font-variant-numeric:normal;font-variant-east-asian:normal;fill:#909090;fill-opacity:1;stroke:none;stroke-width:0.471379px"
           d="m 85.533325,85.093981 h -9.027814 v -3.461794 q 0,-0.543026 -0.40727,-0.950296 -0.339391,-0.40727 -0.882418,-0.40727 h -3.733307 q -0.543026,0 -0.950296,0.40727 -0.339391,0.40727 -0.339391,0.950296 v 7.806005 q 0,0.543027 0.339391,0.950296 0.40727,0.40727 0.950296,0.40727 h 6.109048 q 8.416909,0.135757 8.416909,8.959936 v 9.435086 q 0,8.95993 -8.416909,8.95993 h -8.00964 q -8.41691,0 -8.41691,-8.95993 v -4.54785 h 9.027815 v 4.88724 q 0,0.54303 0.339391,0.9503 0.40727,0.40727 0.950296,0.40727 h 4.208455 q 0.543027,0 0.882418,-0.40727 0.40727,-0.40727 0.40727,-0.9503 v -8.62054 q 0,-0.54303 -0.40727,-0.950301 -0.339391,-0.40727 -0.882418,-0.40727 h -6.109047 q -8.41691,0 -8.41691,-8.959936 v -8.756301 q 0,-8.959936 8.41691,-8.959936 h 7.534492 q 8.416909,0 8.416909,8.959936 z" />
      </g>
      <path
         id="rect1047-9-5-5-0"
         style="color:#000000;overflow:visible;fill:#eac99d;fill-opacity:1;stroke:none;stroke-width:1.41971;stroke-miterlimit:4;stroke-dasharray:none;stroke-opacity:1;paint-order:stroke fill markers;stop-color:#000000"
         d="M 67.480234,7.1537207 C 79.197082,11.165111 88.52644,15.17139 100.47694,19.123259 c 0,0 3.53509,2.008239 1.06305,2.578103 -31.689939,7.875698 -34.612905,8.47549 -41.806971,7.717019 5.891097,-8.857217 4.722194,-13.671608 7.747215,-22.2646603 z"
         sodipodi:nodetypes="ccccc" />
    </g>
  </g>
</svg>
